<svg width="604" height="250" viewBox="0 0 604 250" fill="none" xmlns="http://www.w3.org/2000/svg">
<rect width="604" height="250" fill="url(#paint0_radial_12_27)"/>
<path d="M84 165.667L117.867 83H118.044L151.911 165.667H141.156L131.733 141.933H103.733L94.2222 165.667H84ZM107.111 133.489H128.356L122.044 117.667C121.274 115.652 120.533 113.667 119.822 111.711C119.111 109.756 118.4 107.415 117.689 104.689C116.978 107.415 116.296 109.756 115.644 111.711C114.993 113.607 114.252 115.593 113.422 117.667L107.111 133.489Z" fill="white"/>
<path d="M164.992 165.667V85.6667H185.081C190.118 85.6667 194.444 86.6741 198.058 88.6889C201.673 90.7037 204.458 93.3704 206.414 96.6889C208.429 99.9482 209.436 103.533 209.436 107.444C209.436 111.83 208.192 115.77 205.703 119.267C203.214 122.763 199.806 125.341 195.481 127L222.325 165.667H210.503L185.081 128.867H175.125V165.667H164.992ZM175.125 120.333H185.081C188.518 120.333 191.303 119.711 193.436 118.467C195.629 117.163 197.229 115.533 198.236 113.578C199.303 111.563 199.836 109.519 199.836 107.444C199.836 103.711 198.473 100.659 195.747 98.2889C193.081 95.9185 189.525 94.7333 185.081 94.7333H175.125V120.333Z" fill="white"/>
<path d="M267.386 167.267C261.638 167.267 256.216 166.2 251.119 164.067C246.082 161.874 241.638 158.881 237.786 155.089C233.994 151.296 231.001 146.881 228.808 141.844C226.675 136.807 225.608 131.415 225.608 125.667C225.608 119.919 226.675 114.526 228.808 109.489C231.001 104.452 233.994 100.037 237.786 96.2444C241.638 92.4519 246.082 89.4889 251.119 87.3556C256.216 85.163 261.638 84.0667 267.386 84.0667C273.194 84.0667 278.616 85.163 283.653 87.3556C288.69 89.4889 293.105 92.4519 296.897 96.2444C300.749 100.037 303.742 104.452 305.875 109.489C308.068 114.526 309.164 119.919 309.164 125.667C309.164 131.415 308.068 136.807 305.875 141.844C303.742 146.881 300.749 151.296 296.897 155.089C293.105 158.881 288.69 161.874 283.653 164.067C278.616 166.2 273.194 167.267 267.386 167.267ZM267.386 157.667C273.253 157.667 278.556 156.244 283.297 153.4C288.038 150.496 291.771 146.615 294.497 141.756C297.282 136.896 298.675 131.533 298.675 125.667C298.675 119.741 297.282 114.378 294.497 109.578C291.771 104.719 288.038 100.867 283.297 98.0222C278.556 95.1185 273.253 93.6667 267.386 93.6667C261.519 93.6667 256.216 95.1185 251.475 98.0222C246.794 100.867 243.06 104.719 240.275 109.578C237.49 114.378 236.097 119.741 236.097 125.667C236.097 131.533 237.49 136.896 240.275 141.756C243.06 146.615 246.794 150.496 251.475 153.4C256.216 156.244 261.519 157.667 267.386 157.667Z" fill="white"/>
<path d="M313.5 165.667L347.367 83H347.544L381.411 165.667H370.656L361.233 141.933H333.233L323.722 165.667H313.5ZM336.611 133.489H357.856L351.544 117.667C350.774 115.652 350.033 113.667 349.322 111.711C348.611 109.756 347.9 107.415 347.189 104.689C346.478 107.415 345.796 109.756 345.144 111.711C344.493 113.607 343.752 115.593 342.922 117.667L336.611 133.489Z" fill="white"/>
<path d="M394.225 165.667V85.6667H420.447C427.677 85.6667 433.958 86.8519 439.292 89.2222C444.684 91.5926 449.129 94.7333 452.625 98.6444C456.121 102.556 458.729 106.881 460.447 111.622C462.166 116.304 463.025 120.985 463.025 125.667C463.025 130.348 462.166 135.059 460.447 139.8C458.729 144.481 456.121 148.778 452.625 152.689C449.129 156.6 444.684 159.741 439.292 162.111C433.958 164.481 427.677 165.667 420.447 165.667H394.225ZM404.358 156.6H419.381C425.544 156.6 430.729 155.652 434.936 153.756C439.144 151.8 442.551 149.281 445.158 146.2C447.766 143.059 449.632 139.681 450.758 136.067C451.944 132.452 452.536 128.985 452.536 125.667C452.536 122.348 451.944 118.881 450.758 115.267C449.632 111.652 447.766 108.304 445.158 105.222C442.551 102.081 439.144 99.563 434.936 97.6667C430.729 95.7111 425.544 94.7333 419.381 94.7333H404.358V156.6Z" fill="white"/>
<path d="M479.6 165.667V85.6667H519.067V94.7333H489.733V111.8H512.844V120.867H489.733V156.6H519.067V165.667H479.6Z" fill="white"/>
<path d="M276.373 128.581L307.492 165.667H294.437L268.712 135.009L269.329 127.965L276.373 128.581ZM265.102 127.595L264.486 134.639L243.802 151.995L237.375 144.334L258.057 126.979L265.102 127.595ZM297.425 107L276.743 124.354L269.698 123.738L270.314 116.694L290.998 99.3386L297.425 107ZM266.087 116.324L265.471 123.369L258.427 122.753L241.072 102.069L248.733 95.6413L266.087 116.324Z" fill="white"/>
<defs>
<radialGradient id="paint0_radial_12_27" cx="0" cy="0" r="1" gradientUnits="userSpaceOnUse" gradientTransform="translate(353 293) rotate(-116.416) scale(241.781 584.143)">
<stop stop-color="#4F46E5"/>
<stop offset="0.8"/>
</radialGradient>
</defs>
</svg>
